PathFileType	4	(X/Y/Z)	28_2_77_p0_0-302_filt_butterworth.trc
DataRate	CameraRate	NumFrames	NumMarkers	Units	OrigDataRate	OrigDataStartFrame	OrigNumFrames
53.0	53.0	6	27	m	53.0	75	302
Frame#	Time	RHip			RKnee			RAnkle			RBigToe			RSmallToe			RHeel			LHip			LKnee			LAnkle			LBigToe			LSmallToe			LHeel			Neck			Head			Nose			RShoulder			RElbow			RWrist			RThumb			RIndex			RPinky			LShoulder			LElbow			LWrist			LThumb			LIndex			LPinky			
		X1	Y1	Z1	X2	Y2	Z2	X3	Y3	Z3	X4	Y4	Z4	X5	Y5	Z5	X6	Y6	Z6	X7	Y7	Z7	X8	Y8	Z8	X9	Y9	Z9	X10	Y10	Z10	X11	Y11	Z11	X12	Y12	Z12	X13	Y13	Z13	X14	Y14	Z14	X15	Y15	Z15	X16	Y16	Z16	X17	Y17	Z17	X18	Y18	Z18	X19	Y19	Z19	X20	Y20	Z20	X21	Y21	Z21	X22	Y22	Z22	X23	Y23	Z23	X24	Y24	Z24	X25	Y25	Z25	X26	Y26	Z26	X27	Y27	Z27	
75	1.4150943396226414	0.2290411515857576	0.6804681517268506	1.022764182587762	0.23613827887651728	0.8939987717536313	1.3957423831666467	0.25429696107126015	1.0642908202118047	1.7368142865376495	0.18555900007958326	0.9324471027412845	1.820803299535878	0.25273464083190944	0.9132328579597155	1.8050801232579967	0.2377759299242215	1.1326867030728818	1.771695164329385	0.03382168100067747	0.6789228678715199	1.0173057160991255	0.04544377413018444	0.8425048555105326	1.3637809425597345	0.04032734766330838	1.099490419432289	1.7571745559632732	0.0250052287054209	0.9030872692871699	1.814827587587801	-0.030973803212444584	0.9677253622578668	1.8100631336036002	0.056738396186127596	1.1506949451672464	1.786946970030018	0.12060739489160408	0.5052028104020255	0.49739559315737747	0.12064281050708961	0.41525299548136013	0.2929817331839958	0.1212868898959328	0.3628166717513841	0.4178166954294782	0.27433844660205986	0.601732087736484	0.5732125160421376	0.30593126453447933	0.6416764463378464	0.8042608852218225	0.3300202965098691	0.6561015078878838	1.0420333951914045	0.2851518912357209	0.6485647946380295	1.1533675943777313	0.3009100096722287	0.6366929869463404	1.1637610203287918	0.32783597961865374	0.6913054942431276	1.1584087438078885	0.0025027868665523814	0.5113443083422541	0.5439998148860311	-0.10456406851068249	0.31241975951022555	0.6224458393275487	-0.03132097277993732	0.30783750524564196	0.46931992430209774	0.03645318364475444	0.3259434566247052	0.39897757878038237	0.0295889457257925	0.31854492189239725	0.3756691685294512	0.021494681232101857	0.2912893454547427	0.4059105882072128
76	1.4339622641509433	0.2290437797346915	0.6804431684338279	1.0227589984146228	0.23603888224796357	0.8944573342862886	1.3957903754718335	0.254155808773919	1.0642471078322786	1.7357522793668168	0.18559990055250425	0.9324865994092641	1.8207616665300264	0.2536081159335072	0.9086207462797065	1.8039809531130755	0.237662313576312	1.1327812245039073	1.7718252184199759	0.034054229345948275	0.6789322410720856	1.017235973391736	0.04568975479466522	0.8437587361658835	1.3654781784040257	0.04042814348492721	1.09948299747178	1.7570645362510264	0.02499505866062695	0.9030513753115528	1.8148136444850036	-0.0310589521166702	0.9676211178475377	1.81002685993097	0.05745699066170389	1.1506702903053585	1.7870012134228375	0.12051463482853154	0.5048645588907335	0.4959329079041038	0.1215367952114905	0.41514937572176314	0.29302767848294725	0.12050251815178004	0.36550599494148434	0.4176573067456243	0.27427701486849876	0.6013732017942537	0.5732062492707347	0.30755586574370825	0.6332973776305023	0.8037990224676161	0.33185114304599783	0.6609963737195166	1.0418228536253218	0.28646700726529	0.6485700757072967	1.1529955639818628	0.3009993551248369	0.6366541949370857	1.1634416911143548	0.3301679615217128	0.6909907267133256	1.1576417562071764	0.0024967997693076914	0.51032365308941	0.5442047270227393	-0.10653408787467018	0.3123581281794504	0.6252742601017645	-0.0371950596063743	0.3161617840820776	0.4695056731091229	0.033979412110182156	0.32600721604857136	0.40030915974064074	0.02823522838208848	0.3200978849436769	0.37855795473733017	0.0180955594730492	0.2890889461260443	0.4072259865258978
77	1.4528301886792452	0.2290421593783836	0.6804168107161084	1.0227511206060342	0.23603271941687134	0.8946079785025458	1.3958130874240398	0.2541283348414677	1.0641971856713495	1.7352864933187537	0.1856638628727213	0.9325319253729267	1.8206983914310682	0.25480656413906944	0.9019033491596076	1.8023685898142037	0.23760527298821468	1.1327391113033185	1.7718508880641761	0.03409171040532802	0.678908639376343	1.0172226511624438	0.04598981358172889	0.8447419032581016	1.3667531498010632	0.040491507910724416	1.0995566537758557	1.757018985952048	0.02500371257107491	0.903038438750893	1.8148282780835734	-0.03122915769473696	0.9675295461535912	1.809947213342893	0.05900873673969144	1.1512570419950257	1.7870987577735957	0.12050811834595737	0.5045043103677811	0.49414552408713946	0.12275109956207543	0.415226222130545	0.2929695493831751	0.12004980231128946	0.3671660888417825	0.4168084393992625	0.27434218300991786	0.6011159580705497	0.5742796786630163	0.3089177829898776	0.6260801385492816	0.8038536780331534	0.333138791086266	0.6645147125163995	1.0416875204438294	0.2874517447493222	0.6485485427433575	1.1518891754471487	0.30095424856305	0.6367868599139348	1.1624254718998577	0.3327897889669381	0.6900703176808924	1.1556412292987783	0.002443735019854406	0.507044682349347	0.5448095643192673	-0.10891064622391312	0.31354417681028657	0.628546503552339	-0.04235975824941006	0.3245911224402717	0.4706342699584408	0.031847084427802055	0.32611544067538	0.4012725203325923	0.027153125077981913	0.32359423130950077	0.3818485487011068	0.014717407596796657	0.2865783943759851	0.4090732998181845
78	1.471698113207547	0.22904362209202134	0.6803755572802174	1.0227607788446311	0.23608528286679506	0.894593735217992	1.3958170824666714	0.2541503202344345	1.0641790899241745	1.7351696107705032	0.18569289068497355	0.9325269831473978	1.8206547203625572	0.25558943688446023	0.8967711172331392	1.80114507090178	0.23761293687093546	1.1326078746731252	1.7718297249549966	0.03391962714893737	0.678842000728723	1.017232951196591	0.04619265980218986	0.8450724388411027	1.36718131668031	0.040537728789240245	1.099708979355533	1.757016450168546	0.025020707430658505	0.9030607209124519	1.814840312352603	-0.03134650014869502	0.9674751658639447	1.8098179119142848	0.060878357970197396	1.1524443513745588	1.7872108336341586	0.12053194837759625	0.5041996692065465	0.4925190177674542	0.12396969163334481	0.41594486990197893	0.29279594570628237	0.1188775928615593	0.37145267349840244	0.415053118057564	0.2745032739993149	0.6011190174302639	0.5753396308476744	0.30961291491177073	0.6215969606344349	0.8040346351446058	0.33353184266845387	0.6655630008670123	1.0416550914359353	0.2877009723449647	0.648587891184082	1.1504782540489735	0.30079576747851766	0.6372473032772091	1.1610582477826799	0.335806826985746	0.6887994199072356	1.1534227149288132	0.0023522383822774597	0.5024298070492113	0.5456524878559135	-0.11115283974434938	0.317454144379411	0.6320758433052636	-0.046888155172914434	0.33315648575631884	0.4718022154854235	0.030251560289891243	0.32627006872852193	0.4016335177200414	0.02614823207573571	0.3279922893785666	0.3849972384664395	0.011463867770748062	0.28452840087453524	0.41046494157382996
79	1.490566037735849	0.2290839331809445	0.6803638999298414	1.022781654185711	0.236159432050063	0.8945651929004681	1.3958201539019153	0.2541956949940401	1.06415611423085	1.735149714972819	0.1856673615307085	0.9324886787063318	1.8206648633090416	0.2557809775844633	0.894860674376819	1.8007097161469994	0.2376388345775695	1.1324742580939318	1.7718111332475295	0.03377568968312451	0.6789372655943359	1.0172360526975817	0.046253147636441935	0.8450378033872029	1.3671301633814048	0.04054385722830571	1.0998033107475658	1.7570282113455453	0.02503222764361262	0.9031246101489608	1.8148242920493598	-0.03141626445894048	0.9676000473412911	1.8097165067690537	0.062095566920920386	1.1535207718733504	1.7873053522023017	0.1205502656011108	0.503954844368463	0.49158154392767656	0.12491445759767619	0.4165256098593964	0.292684188511194	0.1162353578932825	0.3793362024321838	0.41253976668741327	0.27468678838613325	0.60127550345766	0.5757353988855387	0.30971177926625176	0.6203481126533001	0.8040967168773366	0.3335156583055865	0.6653391149707197	1.041667572243517	0.28756621312178765	0.6487239146220557	1.1495298909800793	0.3006799932815528	0.6376910842899745	1.1600861445794186	0.3379895492790017	0.6879439826154777	1.1524612372816383	0.0022597577859000116	0.4991144435868604	0.5462697750176201	-0.11320729143106155	0.3238481661951249	0.6351279752806726	-0.0502414854904231	0.34057896112650476	0.4722068001371409	0.02908666212067649	0.3264937664951737	0.40167806848967497	0.02546630053164422	0.3310338978496739	0.38711871455648605	0.008110849287914597	0.2836430586431294	0.4111445755851325
80	1.509433962264151	0.22920165805777715	0.6804647448303145	1.0227973754530775	0.23623854412366305	0.8945617126368156	1.3958325664410844	0.2542866593898848	1.0640891438261313	1.7354998430530035	0.18561834341734884	0.9324634919839303	1.8207139932464735	0.2561013320708757	0.8957961519825898	1.8009193388274163	0.2376525652136921	1.132372766822822	1.7717961336411836	0.033889859750948666	0.6794772942103466	1.0172324293500212	0.046242928288696854	0.8449745753753255	1.3670302437326414	0.04036947328762697	1.0994543322380006	1.7570389197165426	0.025035006941329263	0.9032149244978462	1.8147918670361967	-0.03154684135270189	0.9680384975007431	1.8096648444158054	0.06239333842112063	1.1540753991015542	1.7873916486095236	0.12056271214329066	0.503864315433307	0.4916813736906962	0.12571358234015262	0.41635862298987864	0.2927310946381118	0.11277137431174283	0.38618994457397043	0.41003282458230506	0.2748036950936437	0.6013905573761448	0.57570205809535	0.3097310243941295	0.6233456741033812	0.8042057030885869	0.333505640970965	0.6650618219353551	1.0416840707553343	0.2874502376907476	0.64887138808007	1.1492516438654308	0.300942527082512	0.6367616171079473	1.1597045448955774	0.3386467351077598	0.6878737316411389	1.1526938075572855	0.0022047115320288887	0.49812103538330804	0.5464766847463025	-0.11519559593021737	0.3311129864618462	0.6369750390205722	-0.05175081276734514	0.3449555452009645	0.47208917294585745	0.02787875950640418	0.326893461315788	0.40172954633979496	0.024893962547425062	0.332327768882382	0.38819087648182693	0.004823884723310921	0.28201622755882366	0.41203950946334394
